<svg width="65" height="75" viewBox="0 0 65 75" fill="none" xmlns="http://www.w3.org/2000/svg">
<path d="M7.50855 74.7608C6.26123 74.7585 5.03599 74.4315 3.95336 73.812C1.51552 72.4306 0 69.749 0 66.8378V7.92334C0 5.00402 1.51552 2.33053 3.95336 0.949084C5.06177 0.312069 6.32095 -0.0155169 7.59927 0.000564842C8.87759 0.0166466 10.1281 0.375807 11.2202 1.0405L61.5717 31.1803C62.6211 31.8383 63.4861 32.752 64.0858 33.8358C64.6854 34.9196 65 36.1379 65 37.3765C65 38.6151 64.6854 39.8334 64.0858 40.9172C63.4861 42.001 62.6211 42.9147 61.5717 43.5727L11.212 73.7206C10.0945 74.3963 8.81444 74.7558 7.50855 74.7608Z" fill="white"/>
</svg>
